<?xml version="1.0" encoding="UTF-8"?>
<svg id="_レイヤー_1" data-name="レイヤー 1" xmlns="http://www.w3.org/2000/svg" viewBox="0 0 1690.83 361.65">
  <defs>
    <style>
      .cls-1 {
        letter-spacing: 0em;
      }

      .cls-2 {
        fill: #fcfcf9;
      }

      .cls-3 {
        fill: #e8d6af;
      }

      .cls-4 {
        fill: #f6f3e8;
      }

      .cls-5 {
        fill: #f8f6ed;
      }

      .cls-6 {
        fill: #fdfefd;
      }

      .cls-7 {
        fill: #f9f8f1;
      }

      .cls-8 {
        fill: #ffd41f;
      }

      .cls-9 {
        font-family: Corporate-Logo-Bold, 'Corporate Logo Bold';
        font-size: 331.83px;
        font-weight: 700;
      }

      .cls-10 {
        fill: #fcfcfa;
      }

      .cls-11 {
        letter-spacing: -.02em;
      }

      .cls-12 {
        letter-spacing: -.04em;
      }
    </style>
  </defs>
  <g>
    <path d="M135.72,268.47c.94,1.99,6.16,6.16,8.34,7.2,2.75,1.31,6.21,1.5,7.67,2.35,1.29.75,3.82,5.96,6.04,7-66.72,22.29-141.05-22.26-155.1-90.56C-15.96,103.85,65.83,26.78,155.19,50.97c50.5,13.67,85.78,59.23,88.83,111.21-7.02.38-14.59,2.38-21.06,5.02l-2.05-.8c-.55-8.6-1.95-17.03-4.21-25.31l.75-1.97-.92,2.01h-58.15l-2.6-2.01,2.72.95c9.93,16.3,19.75,32.68,29.47,49.14l-1.11,2.05c-1.62,1.8-7.24,10.33-9.02,13.04l-2.92-.4c-3.61-6.19-7.18-11.97-10.7-17.35l-46.46,80.13c4.84,1.19,10.35,1.19,16.52,0l1.45,1.79Z"/>
    <path d="M343.39,253.3c1.51,2.52,28.69-5.06,27.94,7.57-.43,7.21-9.54,5.38-12.59,7.52-1.58,1.11-7.42,10.59-9.91,13.15-8.61,8.86-21.55,17.06-34.1,18.04-37.21,2.93-78.47-2.05-116.09-.29-12.8-2.19-23.95-10.14-32.35-19.79-2.04-2.35-6.5-10.1-7.94-11.12-3.97-2.79-12.98,1.3-12.7-8.46.36-12.67,23.99-2.41,26.72-6.44.88-1.29,1.44-11.12,2.1-13.95,8.13-35.08,35.56-61.54,71.32-67.06,49.39-7.62,95.81,31.01,97.6,80.81Z"/>
    <path class="cls-8" d="M222.95,167.2c-9.89,4.04-29.23,16.45-36.1,24.06l-31.08-52.14h61.67c2.67,0,5.43,24.63,5.51,28.08Z"/>
    <path class="cls-8" d="M135.72,268.47c-2.83.6-21.05,2.46-21.04-.5l49.13-84.72c2.33-.5,1.6.3,2.23,1.29,4.09,6.38,6.71,13.97,11.79,19.77-8.03,12.2-11.75,23.83-15.18,37.96-9.71,0-20.09-.5-25.57,9.02-2.62,4.55-3.63,12.4-1.36,17.19Z"/>
    <path d="M282.11,158.16c3.86-9.73,7.15-19.79,5.91-30.46-1.69-14.52-15.69-26.74-14.95-43.18.55-12.15,8.47-26.46,19.05-32.63-2.7,9.59-6.8,18.19-5.88,28.46,2.08,23.15,22.81,31.5,11.93,59.3-2.81,7.16-8.7,15.61-16.06,18.52Z"/>
    <path d="M263.06,81.98c-3.58,6.62-4.96,15.02-3.92,22.46s6.87,12.39,9.43,18.65c5.79,14.14.12,26.67-12.52,34.08.49-4.42,3.15-8.3,3.74-12.79,2.22-16.95-10.18-21.75-11.66-35.95-1.11-10.73,4.49-22.56,14.93-26.46Z"/>
    <path d="M315.21,157.17c1.85-5.91,5.25-13.08,4.94-19.41-.42-8.68-9.9-17.84-11.52-26.67-2.45-13.34,2.25-22.28,13.57-29.12-3.3,9.58-5.62,15.62-2.21,25.78,2.04,6.09,8.08,12.42,9.55,18.52,3.13,13.01-2.18,25.28-14.35,30.9Z"/>
    <path class="cls-6" d="M139.57,139.29l16.13,29.42-16.97,29.08-33.89.28-16.92-29.37,16.62-28.93c2.15-1.93,29.82-.02,35.03-.49Z"/>
    <path class="cls-8" d="M38.45,213.32c30.38-.59,60.86.44,91.24,0l-30.07,52.68c-2.47,1.55-12.64-3.08-15.73-4.38-6.49-2.74-12.57-6.35-18.38-10.2-3.11-3.1-7.29-6.8-12.54-11.09l-.5-1.95c-.87.43-1.17.05-1-1l-2.01-3.01c-.73.3-1.34.48-1.51.29-4.88-5.59-8.08-12.31-10.77-19.16l1.26-2.18Z"/>
    <path class="cls-8" d="M202.9,109.04c3.37,4.74,7.03,9.46,9.02,15.04h-97.26l27.07-47.13c6.6-2.04,16.78,1.59,23.59,4.12,16.26,6.04,26.2,15.9,37.57,27.97Z"/>
    <path class="cls-8" d="M44.47,123.08c15.1,24.83,29.07,50.34,44.12,75.19-18.36-.28-36.8.41-55.15.01-.64-.42-1.25-.87-1.76-1.41-6.23-6.61-2.34-37.65.05-46.94,2.28-8.87,5.76-21.46,12.74-26.86Z"/>
    <path class="cls-8" d="M124.69,76.96c-14.66,25.52-28.91,51.3-44.63,76.2l-1.76-1.25c-7.81-14.11-17.11-27.72-24.8-41.86l.58-2.72c13.57-13.15,26.15-23.02,44.85-28.7,7.39-2.25,19.42-5.83,25.76-1.66Z"/>
    <path class="cls-10" d="M53.5,110.04c-.99-1.81-5.22-9.09-4.91-10.32,11.81-12.93,28.14-23.43,45.01-28.29,3.04-.88,13.09-3.5,15.55-3.5h20.56c-.62,3.01-3.38,6.18-5.01,9.02-17.66-.78-37.66,6.56-52.05,16.63-7.03,4.92-11.89,12.31-19.14,16.45Z"/>
    <path class="cls-2" d="M33.44,198.28c-2.65-.06-5.33.12-7.98-.05-8.29-29.58-3.36-58.99,12-85.18,2.39-.56,1.62.43,2.22,1.3,1.78,2.56,3.17,6.06,4.78,8.72-12.23,23.17-18.15,49.33-11.03,75.2Z"/>
    <path class="cls-5" d="M202.9,109.04c-1.29,1.11-2.19-.69-3-1.47-8.89-8.55-15.73-15.35-27.06-21.11-9.79-4.98-20.46-7.13-31.1-9.51,1.71-2.65,1.48-6.06,5.47-6.09,6.66-.04,25.35,9.87,31.35,13.88,10.39,6.95,17.21,14.26,24.34,24.29Z"/>
    <path class="cls-4" d="M38.45,213.32c2.66,6.34,6.61,16.09,11.03,21.06l2.01,3.01c.34.33.65.68,1,1,1.85,1.98,1.52,2.65-1,2.01-7.81-7.7-14.14-16.76-19.04-26.58,1.52-.97,4.16-.46,6.01-.49Z"/>
    <path class="cls-3" d="M65.53,251.42c-5.24-3.48-9.52-6.58-14.04-11.03l1-2.01c3.73,3.43,7.38,7.03,11.33,10.22.49.4,3.84,2.17,1.7,2.81Z"/>
    <path class="cls-8" d="M295.14,194.27c20.98,11.73,33.86,35.59,36.1,59.15-45.09-.54-90.28.75-135.36,0l-1.57-3.27c7.12-47.92,56.81-75.6,100.83-55.89Z"/>
    <path class="cls-8" d="M173.82,267.47l170.45-1c.45,1.74-.72,2-1.49,3.01-4.88,6.36-17.15,15.91-25.16,16.95-37.24-1.09-75.61,1.76-112.72.08-8.59-2.29-15.07-9.9-19.41-17.27-4.78.93-8.67.33-11.67-1.78Z"/>
    <path class="cls-2" d="M295.14,194.27c-.98,2.13-3.1.31-4.38-.13-45.04-15.62-89.21,12.62-94.89,59.29-3.33-.05-6.7.04-10.03,0,2.9-54.78,60.74-86.31,109.3-59.16Z"/>
    <path class="cls-7" d="M173.82,267.47c2.9.6,10.82-.93,12.82.22.39.22,3.86,5.91,5.2,7.32,4.1,4.31,8.52,7.75,13.06,11.51-2.81-.13-5.17.19-8.08-.44-8.35-1.8-18.71-11.38-23-18.61Z"/>
    <path class="cls-3" d="M51.49,237.39c-.93-.9-2.09-1.08-2.01-3.01.65.74,2.32.94,2.01,3.01Z"/>
    <path d="M304.45,240.1c-1.56-1.28-5.78-10.12-8.33-13.21-11.24-13.59-20.41-14.18-36.31-16.84-10.39-1.74-9.22-11.65-2.21-12.68,13.4-1.96,33.22,7,43.03,15.98,4.76,4.36,19.5,21.75,11.13,27.1-2.22,1.42-5.24,1.34-7.3-.36Z"/>
  </g>
  <text class="cls-9" transform="translate(412.24 285.17)"><tspan x="0" y="0">メ</tspan><tspan class="cls-11" x="237.53" y="0">シ</tspan><tspan class="cls-12" x="478.15" y="0">ドリ</tspan><tspan class="cls-1" x="925.37" y="0">AI</tspan></text>
</svg>